# xmcd
#
# Track frame offsets:
#	150
#	17350
#	46475
#	74075
#
# Disc length: 1237 seconds
#
# Revision: 1
# Processed by: cddbd v1.5.2PL0 Copyright (c) Steve Scherf et al.
# Submitted via: audiograbber 1.83.01
#
DISCID=3004d304
DTITLE=E - Street - It's All Over Now, Baby Blue
DYEAR=1997
DGENRE=
TTITLE0=It's All Over Now, Baby Blue (Radio Version)
TTITLE1=It's All Over Now, Baby Blue (Nightclubbing Mix)
TTITLE2=It's All Over Now, Baby Blue (Harlem Mix)
TTITLE3=Jam
EXTD=
EXTT0=
EXTT1=
EXTT2=
EXTT3=
PLAYORDER=
